<?xml version="1.0" standalone="no"?>
<!DOCTYPE svg PUBLIC "-//W3C//DTD SVG 20010904//EN"
 "http://www.w3.org/TR/2001/REC-SVG-20010904/DTD/svg10.dtd">
<svg version="1.0" xmlns="http://www.w3.org/2000/svg"
 width="800.000000pt" height="310.000000pt" viewBox="0 0 800.000000 310.000000"
 preserveAspectRatio="xMidYMid meet">
<metadata>
Created by potrace 1.15, written by Peter Selinger 2001-2017
</metadata>
<g transform="translate(0.000000,310.000000) scale(0.100000,-0.100000)"
fill="#000000" stroke="none">
<path d="M328 2365 c-106 -29 -192 -105 -225 -199 -17 -47 -18 -101 -18 -651
0 -597 0 -600 22 -655 33 -80 74 -124 151 -162 65 -32 70 -33 192 -33 95 0
138 4 177 18 73 25 134 83 169 159 l29 63 3 359 c3 369 0 406 -35 406 -8 0
-12 -4 -8 -9 3 -5 -1 -16 -9 -24 -10 -9 -11 -18 -5 -24 6 -6 9 -134 7 -339
l-3 -329 -28 -57 c-52 -105 -141 -148 -308 -148 -125 0 -190 22 -247 83 -79
87 -77 66 -77 738 l0 595 30 60 c51 99 132 141 295 154 l85 7 -75 1 c-41 0
-96 -6 -122 -13z"/>
<path d="M4855 2353 c50 -26 102 -83 127 -137 l23 -51 3 -580 c4 -662 3 -667
-70 -750 -64 -73 -147 -105 -273 -105 -202 0 -317 90 -345 270 -6 39 -8 279
-6 605 3 533 3 541 26 599 13 34 39 75 62 98 22 22 31 35 20 29 -41 -22 -93
-95 -112 -159 -19 -61 -20 -95 -20 -647 0 -554 1 -586 20 -647 38 -124 133
-197 283 -219 158 -23 322 26 392 118 70 92 70 89 70 743 0 642 0 637 -62 731
-25 38 -133 119 -157 119 -6 -1 3 -8 19 -17z"/>
<path d="M5803 2353 c-16 -26 -18 -1298 -4 -1400 25 -174 122 -267 304 -294
145 -21 288 15 365 94 57 59 81 118 92 234 12 125 13 1275 0 1327 -4 21 -15
43 -22 47 -7 5 -69 8 -138 7 l-125 -2 123 -3 122 -4 0 -672 c0 -570 -2 -682
-15 -732 -41 -161 -169 -236 -381 -222 -141 8 -232 68 -279 183 -19 47 -20 78
-22 724 -2 371 -4 689 -5 705 -3 29 -3 29 -15 8z"/>
<path d="M5957 2363 l123 -4 2 -670 3 -671 24 -19 c14 -12 37 -18 60 -18 l36
2 -35 6 c-25 4 -36 12 -41 31 -4 14 -7 316 -8 672 -1 574 -3 648 -17 662 -13
13 -38 16 -142 14 l-127 -2 122 -3z"/>
<path d="M6243 2359 c-10 -10 -13 -160 -13 -679 0 -505 -3 -669 -12 -678 -8
-8 -8 -12 -1 -12 6 0 18 11 27 25 15 22 16 90 14 690 -2 533 -5 664 -15 654z"/>
<path d="M7153 2353 c-16 -27 -18 -265 -3 -294 10 -17 22 -19 110 -19 l100 0
0 -663 c0 -517 3 -667 13 -680 11 -16 30 -17 162 -15 l150 3 3 678 2 677 105
0 c93 0 105 2 115 19 5 11 10 76 10 145 0 117 -2 128 -22 149 l-23 22 -3 -132
-3 -133 -109 0 -110 0 0 -437 c-1 -241 0 -540 0 -665 0 -141 -3 -228 -9 -228
-5 0 -12 8 -15 18 -2 9 -5 229 -5 487 0 832 -1 845 -11 845 -7 0 -10 -230 -10
-670 l0 -670 -70 0 -70 0 0 664 0 665 -22 15 c-16 12 -47 16 -110 16 l-88 0 0
55 0 55 290 0 290 0 0 -55 0 -54 -102 -4 -103 -3 115 0 115 1 -1 95 -1 95
-321 3 -322 2 0 -100 0 -100 110 0 110 0 -1 -237 c-1 -131 -1 -437 0 -680 l1
-443 93 -1 c50 0 101 -4 112 -9 24 -10 28 -10 -117 -16 l-118 -5 0 680 0 681
-110 0 -109 0 -3 133 c-3 111 -5 129 -15 110z"/>
<path d="M627 2334 c50 -24 113 -83 113 -105 0 -7 -14 -10 -35 -7 -40 5 -48
-8 -11 -18 14 -3 27 -12 30 -20 3 -8 14 -14 25 -14 27 0 31 -25 31 -197 l0
-153 -115 0 -115 0 0 130 c0 127 0 130 -27 160 -22 25 -36 31 -69 32 -23 0
-51 -5 -63 -12 -49 -26 -51 -43 -51 -572 0 -311 4 -507 11 -530 12 -45 54 -71
102 -65 31 4 31 4 -5 5 -26 1 -41 8 -48 21 -16 30 -14 1032 3 1054 21 28 72
32 96 8 19 -19 21 -32 21 -149 0 -86 4 -132 12 -140 8 -8 56 -12 150 -12 l138
0 6 25 c3 14 4 96 2 182 -5 193 -22 246 -97 316 -48 45 -118 87 -143 87 -7 -1
10 -12 39 -26z"/>
<path d="M4523 2342 c-74 -27 -118 -64 -150 -129 l-28 -58 -5 -380 c-3 -209
-3 -477 0 -595 5 -199 7 -219 29 -268 13 -30 41 -68 64 -87 40 -34 113 -66
151 -64 12 0 -3 7 -32 14 -69 19 -98 39 -127 89 -40 68 -45 141 -45 656 0 582
4 621 77 694 98 99 326 100 428 2 76 -73 76 -71 73 -712 -3 -618 0 -590 -69
-669 -33 -39 -33 -39 -4 -17 45 35 73 81 90 147 22 88 22 1102 0 1190 -22 83
-61 134 -130 170 -52 27 -69 30 -164 33 -83 2 -117 -2 -158 -16z"/>
<path d="M1623 2339 c-10 -10 -13 -188 -13 -820 0 -721 2 -809 16 -823 13 -14
56 -16 320 -16 191 0 313 4 325 10 17 10 19 22 19 143 0 90 -4 137 -12 145
-28 28 -33 11 -30 -102 l3 -115 -222 0 c-193 -1 -223 1 -234 15 -15 21 -65 27
-65 9 0 -8 8 -16 18 -18 9 -3 -11 -5 -45 -6 l-63 -1 -2 796 c-2 636 -5 793
-15 783z"/>
<path d="M2250 2234 l0 -115 -177 1 c-98 1 -182 1 -188 1 -6 -1 -10 -83 -10
-226 l0 -225 23 0 22 0 0 185 0 185 166 0 c95 0 174 4 185 10 17 10 19 22 19
143 0 127 -6 157 -32 157 -4 0 -8 -52 -8 -116z"/>
<path d="M3620 2236 l0 -116 -110 0 -110 0 0 -645 c0 -556 -2 -645 -14 -643
-8 2 -15 0 -15 -4 -2 -23 0 -28 11 -25 7 1 14 -8 16 -21 3 -22 2 -22 -117 -22
l-121 0 0 680 0 680 -110 0 -110 0 0 110 c0 112 -13 147 -25 66 -4 -25 -5 -86
-4 -136 5 -116 9 -120 131 -120 l88 0 0 -664 0 -665 22 -15 c26 -19 236 -23
269 -6 18 10 19 29 19 680 l0 670 98 0 c53 0 104 5 112 10 12 7 16 35 18 127
3 118 -6 161 -35 171 -10 3 -13 -24 -13 -112z"/>
<path d="M5846 2332 c-2 -4 -3 -305 -1 -670 4 -741 4 -737 72 -813 37 -41 90
-75 101 -65 3 3 0 6 -6 6 -21 0 -70 51 -93 97 l-24 48 -3 663 -3 662 71 0 70
0 0 -637 c0 -713 -2 -689 70 -726 47 -24 139 -19 178 10 51 37 51 42 51 721
l1 632 70 0 71 0 -3 -652 c-3 -718 0 -680 -65 -767 l-26 -36 36 34 c21 19 47
60 60 90 l22 56 -1 675 -2 675 -103 0 -104 0 0 -657 0 -657 -29 -30 c-26 -27
-36 -31 -85 -31 -59 1 -80 11 -99 47 -9 16 -12 198 -12 677 l0 656 -104 0
c-58 0 -107 -3 -110 -8z"/>
<path d="M4733 2149 c45 -26 47 -49 47 -589 0 -544 -2 -564 -48 -589 -12 -6
-43 -11 -71 -11 -38 0 -56 6 -78 24 l-28 24 -3 543 c-2 533 -2 544 18 571 14
19 16 26 6 22 -8 -3 -23 -18 -33 -32 -17 -25 -18 -65 -21 -571 -3 -533 -2
-544 18 -586 27 -57 73 -79 147 -73 58 5 100 29 120 69 10 18 13 156 13 567 0
594 2 578 -59 621 -16 12 -33 21 -38 21 -4 0 0 -5 10 -11z"/>
<path d="M4604 2117 l-29 -25 -3 -509 c-2 -333 1 -520 7 -544 12 -40 44 -60
94 -58 30 2 29 2 -8 8 l-40 6 -3 519 c-1 375 1 523 9 532 6 8 27 14 45 14 28
0 36 -5 44 -26 13 -33 9 -1000 -4 -1029 -9 -19 -8 -19 10 -2 17 16 20 38 24
215 3 108 3 351 0 539 -6 382 -3 370 -77 380 -32 4 -45 1 -69 -20z"/>
<path d="M413 1659 c-9 -9 -13 -52 -13 -140 0 -148 5 -159 76 -159 l44 0 0
-177 c0 -154 -2 -179 -17 -196 -18 -19 -17 -20 5 -8 13 7 27 23 32 37 6 14 10
115 10 225 l0 199 -60 0 -59 0 -3 116 c-2 92 -5 113 -15 103z"/>
<path d="M2082 1650 c15 -24 28 -26 28 -5 0 16 12 18 59 9 l31 -6 0 -82 c0
-135 13 -125 -169 -128 l-156 -3 0 -220 c0 -121 1 -223 2 -227 2 -3 12 -4 23
-1 19 5 20 14 20 189 l0 184 148 0 c102 0 152 4 160 12 15 15 17 251 2 279 -9
16 -22 19 -85 19 -73 0 -75 -1 -63 -20z"/>
</g>
</svg>
